# xmcd
# Track frame offsets:
# 182
# 20247
# 35727
# 56027
# 77567
# 94255
# 109167
# 133357
# 150167
# 187277
#
# Disc length: 2751 seconds
# Revision: 0
# Processed by: cddbd v1.5.2PL0 Copyright (c) Steve Scherf et al.
# Submitted via: VisiTrax 2.11.2.271 - For more info visit www.synapsa.com
#
DISCID=8c0abd0a
DTITLE=Maya - Machu Pichu
DYEAR=1991
DGENRE=Ethnic
TTITLE0=Llaqui runa
TTITLE1=Cholita cochabambina
TTITLE2=Machu pichu
TTITLE3=Altiplano
TTITLE4=Tiburon
TTITLE5=El condor pasa
TTITLE6=Sariri
TTITLE7=Serenata
TTITLE8=Huayno anymara
TTITLE9=For beginning
EXTD=
EXTT0=
EXTT1=
EXTT2=
EXTT3=
EXTT4=
EXTT5=
EXTT6=
EXTT7=
EXTT8=
EXTT9=
PLAYORDER=
